<?xml version="1.0" encoding="UTF-8" standalone="no"?>
<!DOCTYPE svg PUBLIC "-//W3C//DTD SVG 1.1//EN" "http://www.w3.org/Graphics/SVG/1.1/DTD/svg11.dtd">
<!-- Created with Inkscape (http://www.inkscape.org/) -->
<svg
   xmlns:svg="http://www.w3.org/2000/svg"
   xmlns:xlink="http://www.w3.org/1999/xlink"
   xmlns="http://www.w3.org/2000/svg"
   version="1.1"
   width="400"
   height="388"
   id="svg12362">
  <defs
     id="defs12364" />
  <g
     id="g3220">
    <path
       d="M 200.38097,377.9954 L 199.72061,378.00002 C 183.05933,352.26133 163.1009,353.39828 153.63888,353.38442 L 84.172241,353.39828 C 36.192559,354.11466 38.062797,310.40649 38.062797,310.40649 L 38.048943,60.525324 L 9.9999935,10.711778 L 104.17224,10.697912 L 118.18748,24.364516 L 133.55114,10.000024 L 266.48118,10.000024 L 281.86792,24.350651 L 295.84622,10.697912 L 390,10.674803 L 361.97414,60.492971 L 361.99723,310.40649 C 361.99723,310.40649 369.35349,353.38904 315.93858,353.38442 L 246.44423,353.38904 C 239.43892,353.31971 216.01246,352.24284 200.38097,377.9954"
       id="path3463"
       style="fill:#ffffff;fill-opacity:1;fill-rule:nonzero;stroke:#1166ad;stroke-width:1.5;stroke-miterlimit:4;stroke-dasharray:none;stroke-opacity:1" />
    <path
       d="M 349.70907,60.492971 L 349.69983,57.317808 L 351.31609,54.493901 L 369.02563,22.991847 L 300.83352,22.996469 L 290.39251,33.15052 L 282.0157,41.294097 L 273.47263,33.335391 L 261.63241,22.29858 L 138.38605,22.307824 L 126.57815,33.340013 L 118.02124,41.307962 L 109.64442,33.164385 L 99.161851,23.010335 L 31.011307,23.005713 L 48.739315,54.526253 L 50.337098,57.345539 L 50.327863,60.529945 L 50.350952,310.4296 C 50.350952,310.4296 48.526893,323.83738 55.347489,331.72676 C 60.713455,337.98003 70.387895,341.16443 84.176859,341.14132 L 153.08935,341.14595 C 158.7601,341.15057 183.11937,339.18169 200.02539,360.36331 C 217.62872,338.50691 241.96952,341.09973 246.97991,341.11359 L 315.9432,341.10897 C 329.67675,341.12746 339.37427,337.95692 344.73562,331.69903 C 351.53313,323.81889 349.73678,310.39262 349.73678,310.39262 L 349.70907,60.492971"
       id="path3467"
       style="fill:#1166ad;fill-opacity:1;fill-rule:nonzero;stroke:none" />
    <path
       d="M 341.48926,123.31683 L 341.48926,116.49046 L 58.432227,116.50432 L 58.432227,123.34918 L 341.48926,123.31683 z"
       id="path3469"
       style="fill:#ffffff;fill-opacity:1;fill-rule:nonzero;stroke:none" />
    <path
       d="M 152.78919,133.58642 L 142.97159,133.57256 L 341.55391,275.84481 L 341.54467,268.80122 L 152.78919,133.58642 z"
       id="path3471"
       style="fill:#ffffff;fill-opacity:1;fill-rule:nonzero;stroke:none" />
    <path
       d="M 341.54929,254.87118 L 341.53082,133.55869 L 172.27199,133.56794 L 341.54929,254.87118 z"
       id="path3473"
       style="fill:#ea203e;fill-opacity:1;fill-rule:nonzero;stroke:none" />
    <path
       d="M 58.529202,166.87711 L 287.64488,332.90531 L 297.38859,332.89607 L 58.538438,159.80116 C 58.529202,162.12129 58.538438,164.46454 58.529202,166.87711"
       id="path3475"
       style="fill:#ffffff;fill-opacity:1;fill-rule:nonzero;stroke:none" />
    <path
       d="M 247.64488,332.92842 L 247.22927,332.90531 L 246.97067,332.88682 L 247.64488,332.92842 z"
       id="path3477"
       style="fill:#ffffff;fill-opacity:1;fill-rule:nonzero;stroke:none" />
    <path
       d="M 284.25998,75.042335 L 275.34287,75.042335 L 275.34287,64.957611 L 284.15377,64.948367 C 284.15377,64.948367 287.86654,64.897528 287.88039,68.313023 L 287.87116,71.723897 C 287.88039,75.18561 284.25998,75.042335 284.25998,75.042335 M 285.85315,56.786304 L 275.35211,56.790925 L 272.78919,56.790925 L 267.14615,56.790925 L 267.16,107.9679 L 275.32902,107.97714 L 275.34287,82.834656 L 280.33017,82.834656 L 289.17801,107.98638 L 297.34241,107.97252 L 288.35603,82.515753 C 292.44747,81.799377 296.06326,77.685993 296.06788,72.944047 L 296.06788,66.871028 C 296.05864,61.408084 290.93281,56.948066 285.85315,56.786304"
       id="path3479"
       style="fill:#ffffff;fill-opacity:1;fill-rule:nonzero;stroke:none" />
    <path
       d="M 284.23689,273.08099 L 277.00531,267.7983 L 284.30154,257.83374 L 291.39921,263.024 C 291.39921,263.024 294.44239,265.15464 292.4567,267.90922 L 289.09489,272.54024 C 287.09535,275.32255 284.23689,273.08099 284.23689,273.08099 M 297.58716,257.3808 L 289.11798,251.22459 L 287.05379,249.73638 L 282.50519,246.38559 L 252.33664,287.72279 L 258.93096,292.5849 L 272.44747,274.07005 L 276.46963,277.0095 L 270.14315,300.68226 L 276.70976,305.56286 L 283.13784,281.48801 C 286.85523,283.35521 292.20734,282.1859 295.01039,278.29898 L 299.89148,271.63437 C 303.13322,267.20209 301.63703,260.62991 297.58716,257.3808"
       id="path3481"
       style="fill:#ffffff;fill-opacity:1;fill-rule:nonzero;stroke:none" />
    <path
       d="M 246.18563,99.77348 L 245.16508,99.764237 C 245.16508,99.764237 240.82429,99.648692 240.82429,95.299597 L 240.82429,69.436116 C 240.82429,69.436116 240.9582,65.105508 245.16508,64.952989 L 246.31493,64.952989 C 246.31493,64.952989 250.30016,65.600038 250.30016,69.588634 L 250.30478,95.299597 C 250.16162,99.412981 246.18563,99.77348 246.18563,99.77348 M 244.02447,107.98638 L 247.09997,107.9679 C 247.09997,107.9679 258.33064,106.42884 258.46455,96.727727 L 258.46455,68.423946 C 258.60771,57.405622 247.728,56.790925 247.728,56.790925 L 244.40775,56.795547 L 244.02447,56.781682 C 233.14477,56.795547 232.61833,67.776897 232.61833,67.776897 L 232.61833,95.812615 C 232.62295,107.08514 244.02447,107.98638 244.02447,107.98638"
       id="path3483"
       style="fill:#ffffff;fill-opacity:1;fill-rule:nonzero;stroke:none" />
    <path
       d="M 123.17478,64.966854 L 123.17478,56.804791 L 110.86815,56.800169 L 106.29184,56.795547 L 102.67605,56.800169 L 102.68529,107.98176 L 106.29646,107.99563 L 110.87277,107.99563 L 123.18402,107.98638 L 123.1794,99.782724 L 110.87277,99.791967 L 110.87277,86.254773 L 123.17478,86.250152 L 123.17478,78.046492 L 110.87277,78.051114 L 110.86815,64.966854 L 123.17478,64.966854 z"
       id="path3485"
       style="fill:#ffffff;fill-opacity:1;fill-rule:nonzero;stroke:none" />
    <path
       d="M 267.84345,246.00198 L 272.75225,239.46216 L 262.91156,232.10429 L 259.23112,229.37744 L 256.36342,227.21444 L 225.79773,268.32056 L 228.6839,270.42809 L 232.37358,273.17343 L 242.20041,280.48508 L 247.11844,273.95913 L 237.26852,266.59201 L 245.34518,255.72621 L 255.20434,263.03324 L 260.10852,256.51653 L 250.22627,249.15403 L 257.99353,238.68108 L 267.84345,246.00198 z"
       id="path3487"
       style="fill:#ffffff;fill-opacity:1;fill-rule:nonzero;stroke:none" />
    <path
       d="M 83.493414,56.800169 L 83.498032,88.949271 L 69.70445,56.809412 L 61.503111,56.809412 L 61.503111,107.99101 L 69.70445,107.98638 L 69.70445,75.832659 L 83.498032,107.98638 L 91.699371,107.99563 L 91.699371,56.795547 L 83.493414,56.800169 z"
       id="path3489"
       style="fill:#ffffff;fill-opacity:1;fill-rule:nonzero;stroke:none" />
    <path
       d="M 219.60055,56.786304 L 212.66451,75.587705 L 205.77926,56.795547 L 197.58716,56.781682 L 208.58231,86.74006 L 208.58693,107.98176 L 216.75594,107.98638 L 216.76518,86.74006 L 227.7788,56.800169 L 219.60055,56.786304 z"
       id="path3491"
       style="fill:#ffffff;fill-opacity:1;fill-rule:nonzero;stroke:none" />
    <path
       d="M 339.04179,107.97252 L 323.57192,72.990265 L 333.68044,56.795547 L 325.49757,56.781682 L 314.74717,74.034787 L 314.75179,56.786304 L 306.55506,56.790925 L 306.55506,107.97714 L 314.75179,107.9679 L 314.7564,87.229969 L 318.75548,80.750233 L 330.86354,107.9679 L 339.04179,107.97252 z"
       id="path3493"
       style="fill:#ffffff;fill-opacity:1;fill-rule:nonzero;stroke:none" />
    <path
       d="M 168.41145,56.795547 L 163.27176,88.121973 L 157.92888,56.786304 L 149.7691,56.795547 L 144.42161,88.108107 L 139.26806,56.800169 L 131.09905,56.786304 L 139.52666,107.98176 L 141.06903,107.98176 L 147.72338,107.98638 L 149.2519,108.00025 L 153.83745,80.856534 L 158.45993,107.97714 L 159.98383,107.99101 L 166.67975,107.97252 L 168.18055,107.97714 L 176.60355,56.809412 L 168.41145,56.795547 z"
       id="path3495"
       style="fill:#ffffff;fill-opacity:1;fill-rule:nonzero;stroke:none" />
    <path
       d="M 208.18517,192.80067 L 189.47356,218.97843 L 196.93142,184.76339 L 190.24936,180.00296 L 160.48256,221.65907 L 167.17848,226.4195 L 185.86238,200.27409 L 178.37681,234.47526 L 185.05887,239.23107 L 214.83491,197.56573 L 208.18517,192.80067 z"
       id="path3497"
       style="fill:#ffffff;fill-opacity:1;fill-rule:nonzero;stroke:none" />
    <path
       d="M 238.08127,214.4306 L 234.22073,211.67602 L 233.92519,211.38023 C 225.08196,205.02066 218.27522,213.69112 218.27522,213.69112 L 201.93719,236.45338 C 195.35673,245.60913 204.10759,252.97625 204.10759,252.97625 L 207.728,255.68461 C 207.728,255.68461 210.19856,256.9556 213.38489,257.37156 L 213.19556,259.38203 L 216.77903,261.97485 L 222.3528,254.57076 C 222.75456,254.14094 223.15631,253.66027 223.54883,253.1565 L 228.89171,245.69694 L 232.64604,240.48358 L 225.95474,235.76012 L 219.28653,231.00893 L 215.59224,236.23154 L 222.20503,240.94113 L 217.71184,247.24524 C 215.23666,250.50822 211.76864,248.52085 211.76864,248.52085 L 209.78296,246.98642 C 209.78296,246.98642 206.3057,244.36125 208.864,240.82559 L 223.91364,219.83808 C 223.91364,219.83808 226.58277,216.36251 230.07388,218.72423 L 232.13807,220.26329 C 232.13807,220.26329 235.00577,223.14728 232.70607,226.35942 L 229.35349,230.94884 L 236.03555,235.79709 L 240.02539,230.19087 C 246.52274,221.29394 238.08127,214.4306 238.08127,214.4306"
       id="path3499"
       style="fill:#ffffff;fill-opacity:1;fill-rule:nonzero;stroke:none" />
    <path
       d="M 162.39436,176.17151 L 154.60401,195.37038 L 146.58739,189.62551 L 162.39436,176.17151 z M 173.39875,167.63046 L 167.01223,162.69902 L 125.53913,196.07289 L 132.11498,200.87954 L 140.98591,194.1872 L 152.04571,202.35851 L 148.3745,212.80373 L 154.96421,217.65198 L 173.39875,167.63046 z"
       id="path3501"
       style="fill:#ffffff;fill-opacity:1;fill-rule:nonzero;stroke:none" />
    <path
       d="M 325.70538,274.48601 C 331.36227,279.21871 333.27868,284.11318 330.17548,290.22779 C 328.71161,293.07481 326.20411,296.32392 326.20411,296.32392 L 319.76679,291.54962 C 319.76679,291.54962 326.20872,285.42114 321.07365,280.8918 C 319.02793,279.27418 317.00992,278.37755 313.93904,279.21871 C 309.68136,281.70523 309.67213,286.09592 311.08058,290.99501 C 313.93442,298.6533 317.91503,309.29264 311.71784,316.67362 C 308.24982,320.11222 302.39898,322.40925 298.30755,320.35718 C 293.17709,318.51309 288.09282,314.49214 285.63611,309.39894 C 282.80073,301.83771 291.31147,293.33825 291.31147,293.33825 L 296.85753,297.19282 C 296.85753,297.19282 290.85892,304.34271 293.26483,307.49014 C 294.08219,309.89347 300.39482,314.37197 304.48626,312.35226 C 314.0591,305.08682 294.78411,288.99378 304.19995,276.92169 C 306.67513,274.07929 309.55668,272.03185 313.0247,271.18144 C 318.1413,269.96591 321.80789,272.15663 325.70538,274.48601"
       id="path3503"
       style="fill:#ffffff;fill-opacity:1;fill-rule:nonzero;stroke:none" />
    <path
       d="M 200.03925,350.03363 C 185.62225,332.69733 159.45739,332.78977 152.86769,332.89607 L 84.172241,332.89607 C 55.499878,332.90531 58.538438,310.97034 58.538438,310.97034 C 58.543056,310.94723 58.547673,245.03603 58.53382,180.86723 L 268.32371,332.89607 L 247.22927,332.90531 C 240.50103,332.89607 217.1854,331.29693 200.03925,350.03363"
       id="path3505"
       style="fill:#ffffff;fill-opacity:1;fill-rule:nonzero;stroke:none" />
    <path
       d="M 129.09027,161.06291 L 121.86331,155.81256 L 129.1226,145.83414 L 136.25721,151.03827 C 136.25721,151.03827 139.31886,153.16428 137.28238,155.93735 L 133.9298,160.50829 C 131.90256,163.2906 129.09027,161.06291 129.09027,161.06291 M 142.42669,145.40894 L 133.96213,139.22962 L 131.87947,137.71829 L 127.35857,134.40448 L 97.185402,175.77865 L 103.79358,180.54833 L 117.25929,162.06121 L 121.30916,165.02839 L 114.95497,188.71502 L 121.54005,193.56326 L 127.9866,169.4653 C 131.69937,171.36023 137.04687,170.15395 139.85453,166.28552 L 144.72177,159.62091 C 147.93119,155.21635 146.41653,148.5841 142.42669,145.40894"
       id="path3507"
       style="fill:#ffffff;fill-opacity:1;fill-rule:nonzero;stroke:none" />
  </g>
</svg>
