<svg xmlns="http://www.w3.org/2000/svg" height="250.22" viewBox="0 0 224 250.21892" width="224"><g transform="matrix(1.25 0 0 -1.25 -271.5 859.27)"><g><path d="m394.17 666.61c-25.043 13.037-55.284 19.93-87.452 19.93-32.172 0-62.411-6.8927-87.45-19.93l-1.3491-0.70143v-38.146c0-10.154 1.4496-36.912 14.875-66.002 15.064-32.64 36.827-54.532 72.769-73.197l1.155-0.59856 1.155 0.59856c35.946 18.67 57.707 40.561 72.769 73.197 13.428 29.091 14.877 55.848 14.877 66.002v38.146l-1.3491 0.70143z" fill="#b9975b"/><path d="m393.02 627.76c0-9.9907-1.4262-36.315-14.644-64.955-16.226-35.153-40.103-55.635-71.651-72.023-31.81 16.521-55.528 37.092-71.649 72.023-13.217 28.639-14.644 54.964-14.644 64.955v36.624c26.853 13.984 57.454 19.647 86.292 19.647 29.109 0 59.615-5.7564 86.295-19.645v-36.626z" fill="#041e42"/><path d="m225.11 661.64v-33.786c0-9.6774 1.3842-35.193 14.213-62.988 14.99-32.481 37.723-53.297 67.398-68.71 29.792 15.474 52.458 36.343 67.396 68.71 12.829 27.795 14.213 53.311 14.213 62.988v33.786c-23.629 12.301-54.555 17.805-81.609 17.805-27.15 0-58.029-5.5249-81.612-17.805" fill="#b9975b"/><path d="m111.9 62.588c-55.128 0-91.713 17.857-94.656 19.342 1.745 34.4 15.998 96.54 74.76 137.13 7.865-4.21 13.106-11.3 16.226-16.81 6.19 7.49 6.83 17.94 6.83 17.95-0.45 5.12-3.16 10.81-3.16 10.81 5.27-2.74 10.25-5.64 14.97-8.67 7.85-5.05 14.96-10.47 21.39-16.18l0.55-0.49c20.72-21.44 21.32-53.57 21.32-53.57-4.52-18.75-12.45-25.25-12.45-25.25 1.58 8.57 2.56 17.98 2.56 17.98-5.05 11.14-14.08 18.6-14.08 18.6-8.13 0.9-14.58 0.09-25.86-3.73-9.79-3.31-17.06-8.47-17.06-8.47s-3.721-0.23-8.011 0.23c-3.633 0.38-8.022 1.35-8.022 1.35 4.857-8.58 7.738-17.3 8.264-21.27-3.306-3.49-6.881-6.82-10.537-9.45-8.041 0.37-14.438 0.84-14.438 0.84l2.709-10.99s-1.85 1.54-3.916 3.61c-2.218 2.22-4.664 4.97-4.664 4.97-4.819 1.96-11.594 3.01-11.594 3.01-3.463-0.9-6.777-3.16-6.777-3.16 8.131-12.05 21.381-16.87 21.381-16.87-2.408-2.85-2.26-5.113-2.26-5.113 3.379-2.233 6.467-4.074 9.193-5.576-0.666 1.765-0.759 3.009-0.759 3.009s4.633-3.736 7.457-5.431c3.162-1.897 6.244-3.52 6.244-3.52 2.046-6.59 5.552-11.933 6.455-12.693 0 0 1.848-0.296 2.806-0.182 0.179 2.157 2.642 5.592 3.639 6.91-5.112 1.669-9.541 4.998-9.541 4.998s11.231-2.999 21.181-3.332c13.48-0.45 21.78 2.59 21.78 2.59-2.02 2.923-4.76 6-4.76 6 22.29-7.555 24.62-13.331 36.7-15.93 4.4 0.717 8.39 2.147 8.39 2.147 2.86 3.01 3.54 6.096 3.54 6.096-1.66 12.874-6.85 27.337-6.85 27.337-4.06 4.97-11.07 9.48-11.07 9.48 7.01-0.9 17.39-4.07 17.39-4.07 6.46 4.72 14.94 14.96 18.46 19.37 7.33-20.31 10.21-39.377 10.93-53.66-2.94-1.485-39.53-19.342-94.66-19.342zm54.66 17.557c-5.59 0.903-12.87 6.38-18.67 10.927 3.01 0 8.28-0.972 8.28-0.972-1.06 2.709-4.82 9.787-4.82 9.787 2.41 0.153 7.08-0.903 7.08-0.903-1.81 5.566-5.27 12.346-5.27 12.346l2.71 6.48c4.82-2.71 11.29-8.73 11.29-8.73 3.46-10.243 6.46-23.967 6.46-23.967 0-1.356-1.64-3.556-1.64-3.556-1.64-0.848-5.42-1.412-5.42-1.412zm-63.43 15.691c-8.715 0.237-16.939 3.521-16.939 3.521h0.004l-9.076 12.483h0.004l6.621 3.1c4.784 0.23 10.392 0.15 16.152-1.2 2.744-2.56 7.034-7.23 9.294-11.14 0 0 0.08-1.06 0-2.41 2.11-0.605 3.77-0.906 6.4-1.432-0.75-0.322-1.53-0.641-2.27-0.936-2.24-0.888-4.17-1.586-4.17-1.586-1.97-0.348-4-0.455-6.02-0.4zm17.88 5.994s0.31 5.82-0.14 7.66c-4.98 6.83-10.91 13.23-10.91 13.23l17.8-8.16c1.03-3.79 1.69-7.56 1.69-7.56-5.12-4.07-8.44-5.17-8.44-5.17z" transform="matrix(.8 0 0 -.8 217.2 687.42)" fill="#041e42"/><path d="m111.91 17.115c-57.521 0-94.865 19.444-94.865 19.444v37.681c28.402-12.924 63.598-18.81 94.865-18.81 31.15 0 66.39 5.869 94.85 18.816v-37.687s-37.34-19.444-94.85-19.444zm-11.951 86.915c-1.929 0.15-3.814 0.39-5.512 0.72-0.198 0.75-0.792 2.35-2.318 2.97-1.543 0.63-3.632-0.19-4.365-0.98-0.564 0.95-1.205 2.04-1.205 2.04s4.366 2.03 9.484-0.46c3.153-1.52 3.916-4.29 3.916-4.29z" transform="matrix(.8 0 0 -.8 217.2 687.42)" fill="#c8102e"/><path d="m112.85 24.162c-2.21-0.016-4.42-0.003-6.62 0.041v24.611c1.68-0.032 3.36-0.048 5.04-0.048v-9.823c0.4 0 0.79 0 1.19 0.002 1.33 3.282 2.67 6.576 4 9.881 1.78 0.041 3.57 0.099 5.35 0.178-1.33-3.332-2.66-6.658-4-9.969 0.55 0.015 1.11 0.032 1.66 0.053 0.78-1.391 1.56-2.776 2.34-4.158v-6.289c-0.78-1.45-1.56-2.897-2.34-4.338-2.21-0.078-4.42-0.124-6.62-0.141zm-20.717 0.815c-3.624 0.289-7.242 0.66-10.852 1.113-0.777 1.514-1.553 3.032-2.328 4.555v16.111c0.775 1.312 1.551 2.627 2.328 3.945 3.61-0.453 7.228-0.824 10.852-1.113 0.78-1.479 1.561-2.954 2.342-4.424v-16.109c-0.781-1.362-1.562-2.722-2.342-4.078zm41.547 0.123v24.615c1.68 0.158 3.35 0.332 5.03 0.525v-24.611c-1.68-0.193-3.35-0.369-5.03-0.529zm16.83 2.189l0.09 24.611c4.38 0.708 8.73 1.538 13.07 2.491 0.76-1.248 1.52-2.496 2.28-3.735l-0.06-16.107c-0.77-1.596-1.55-3.183-2.32-4.77-4.34-0.952-8.69-1.783-13.06-2.49zm-39.24 1.83c1.83 0.003 3.67 0.028 5.5 0.069v4.857c-1.83-0.044-3.67-0.068-5.5-0.068v-4.858zm-49.131 0.199c-1.649 0.369-3.297 0.751-4.94 1.155v24.611c4.32-1.055 8.66-1.99 13.018-2.803v-4.965c-2.701 0.503-5.392 1.053-8.078 1.649v-19.647zm27.306 0.856v14.678c-1.829 0.166-3.655 0.353-5.482 0.56v-14.678c1.827-0.207 3.653-0.394 5.482-0.56zm66.065 2.943c1.81 0.333 3.62 0.688 5.43 1.065l0.06 14.675c-1.81-0.377-3.62-0.729-5.43-1.062l-0.06-14.678zm-110.1 0.158c-4.276 1.275-8.521 2.669-12.738 4.186v24.615c1.604-0.579 3.215-1.141 4.828-1.681v-9.823c1.876-0.631 3.758-1.238 5.646-1.82v-4.967c-1.888 0.582-3.77 1.191-5.646 1.822v-4.857c2.627-0.883 5.262-1.719 7.91-2.508v-4.967zm134.56 0.516c-0.76 1.192-1.51 2.384-2.27 3.582v20.365c1.63 0.468 3.25 0.953 4.88 1.455v-9.82c1.77 0.549 3.54 1.123 5.3 1.713v9.824c1.61 0.544 3.22 1.101 4.83 1.68v-20.36c-0.75-1.686-1.5-3.369-2.25-5.046-3.48-1.213-6.97-2.344-10.49-3.393zm2.61 5.76c1.77 0.549 3.54 1.121 5.3 1.715v4.855c-1.76-0.59-3.53-1.163-5.3-1.713v-4.857zm-79.12 56.283c-8.716 0.238-16.94 3.523-16.94 3.523l0.906 1.863 0.681 1.4c7.915-3.566 13.683-5.141 17.223-5.837 0.79-0.152 1.46-0.267 2.03-0.345 0.28-0.038 0.53-0.07 0.76-0.096 0.91-0.105 1.36-0.108 1.36-0.108-1.97-0.347-4.01-0.455-6.02-0.4zm6.06 4.356c-0.11 0.12-0.48 0.57-1.09 1.27-0.45 0.52-1.03 1.17-1.71 1.92-2.05 2.24-5.04 5.33-8.417 8.17 0 0-5.197 1.01-11.647 1.05-2.934 0.01-6.126-0.18-9.207-0.76l6.627 3.1c4.782 0.23 10.386 0.15 16.144-1.2 2.75-2.56 7.04-7.23 9.3-11.14 0 0 0.08-1.06 0-2.41zm-62.545 26.69l-3.102 8.09s2.86 7.99 6.473 14.16c0 0 2.935-4.64 5.168-6.77l-3.137-8.82c-1.178-1.1-2.211-2.2-3.158-3.43-0.886-1.15-1.636-2.26-2.244-3.23zm29.023 0.29c-1.289 0-3.03 0.03-4.836 0.18-4.661 0.31-8.933 0.92-8.933 0.92-0.711 0.53-1.79 1.39-2.584 2.01-1.45 1.3-1.97 2.01-2.899 3.18l0.147 8.61c2.767 1.29 13.633 6.26 22.363 8.87 0 0 0.54-0.86 1.273-2.28-2.873-2.66-6.017-4.61-6.017-4.61 3.469-0.1 6.436 0.41 7.789 0.69 0.216-0.55 0.43-1.13 0.635-1.74-3.417-2.72-7.543-4.66-7.543-4.66 3.781-0.55 7.487-0.27 8.791-0.14 0.093-0.54 0.167-1.08 0.228-1.62-4.077-2.79-10.012-4.43-10.012-4.43 2.669-0.87 5.134-1.26 6.709-1.44l-2.984-3.5s-0.838-0.03-2.127-0.04zm-19.176 19.55s-2.108 2.7-2.26 7.07c0 0 1.808 6.25 7.229 10.54 0 0 8.13-3.39 19.873-4.51 0 0-15.057-6.17-24.842-13.1zm36.137 18.52s29.061 23.94 22.431 54.96c-0.45 5.11-3.15 10.79-3.16 10.8 5.27-2.73 10.25-5.62 14.96-8.65 7.86-5.06 14.96-10.48 21.39-16.19-8.14-18.27-23.25-30.54-23.25-30.54s1.58 3.73 2.6 9.04c0.87 4.54 0.45 7.34 0.45 7.34-14.46-16.56-35.421-26.76-35.421-26.76zm19.271 65.76v0.01-0.01z" transform="matrix(.8 0 0 -.8 217.2 687.42)" fill="#fff"/></g></g></svg>
